<svg width="277" height="59" viewBox="0 0 277 59" fill="none" xmlns="http://www.w3.org/2000/svg">
<path d="M87.1201 42.9999V9.3999H90.7201V42.9999H87.1201Z" fill="white"/>
<path d="M113.332 43.3839C110.996 43.3839 108.948 42.8399 107.188 41.7519C105.46 40.6319 104.116 39.1279 103.156 37.2399C102.196 35.3519 101.716 33.2719 101.716 30.9999C101.716 28.6959 102.196 26.6159 103.156 24.7599C104.116 22.8719 105.46 21.3839 107.188 20.2959C108.948 19.1759 110.996 18.6159 113.332 18.6159C115.316 18.6159 117.012 18.9999 118.42 19.7679C119.86 20.5359 121.028 21.5759 121.924 22.8879V18.9999H125.524V42.9999H121.924V39.1599C121.028 40.4399 119.86 41.4639 118.42 42.2319C117.012 42.9999 115.316 43.3839 113.332 43.3839ZM113.812 40.1199C115.604 40.1199 117.108 39.7039 118.324 38.8719C119.572 38.0399 120.516 36.9359 121.156 35.5599C121.796 34.1519 122.116 32.6319 122.116 30.9999C122.116 29.3359 121.796 27.8159 121.156 26.4399C120.516 25.0639 119.572 23.9599 118.324 23.1279C117.108 22.2959 115.604 21.8799 113.812 21.8799C112.052 21.8799 110.532 22.2959 109.252 23.1279C107.972 23.9599 106.996 25.0639 106.324 26.4399C105.652 27.8159 105.316 29.3359 105.316 30.9999C105.316 32.6319 105.652 34.1519 106.324 35.5599C106.996 36.9359 107.972 38.0399 109.252 38.8719C110.532 39.7039 112.052 40.1199 113.812 40.1199Z" fill="white"/>
<path d="M148.311 43.3839C145.911 43.3839 143.831 42.8399 142.071 41.7519C140.311 40.6319 138.935 39.1279 137.943 37.2399C136.983 35.3519 136.503 33.2719 136.503 30.9999C136.503 28.6959 136.983 26.6159 137.943 24.7599C138.935 22.8719 140.311 21.3839 142.071 20.2959C143.831 19.1759 145.911 18.6159 148.311 18.6159C151.159 18.6159 153.575 19.3519 155.559 20.8239C157.575 22.2959 158.935 24.1999 159.639 26.5359H155.751C155.207 25.1599 154.327 24.0399 153.111 23.1759C151.927 22.3119 150.487 21.8799 148.791 21.8799C147.031 21.8799 145.495 22.2959 144.183 23.1279C142.871 23.9599 141.863 25.0639 141.159 26.4399C140.455 27.8159 140.103 29.3359 140.103 30.9999C140.103 32.6319 140.455 34.1519 141.159 35.5599C141.863 36.9359 142.871 38.0399 144.183 38.8719C145.495 39.7039 147.031 40.1199 148.791 40.1199C150.487 40.1199 151.927 39.6879 153.111 38.8239C154.327 37.9599 155.207 36.8399 155.751 35.4639H159.639C158.935 37.7999 157.575 39.7039 155.559 41.1759C153.575 42.6479 151.159 43.3839 148.311 43.3839Z" fill="white"/>
<path d="M170.34 42.9999V9.3999H173.94V22.7439C174.804 21.5919 175.86 20.6159 177.108 19.8159C178.356 19.0159 179.956 18.6159 181.908 18.6159C183.572 18.6159 185.124 19.0159 186.564 19.8159C188.036 20.5839 189.22 21.7519 190.116 23.3199C191.044 24.8559 191.508 26.7599 191.508 29.0319V42.9999H187.908V29.1279C187.908 26.9519 187.284 25.2079 186.036 23.8959C184.788 22.5519 183.172 21.8799 181.188 21.8799C179.844 21.8799 178.628 22.1839 177.54 22.7919C176.452 23.3999 175.572 24.2639 174.9 25.3839C174.26 26.4719 173.94 27.7359 173.94 29.1759V42.9999H170.34Z" fill="white"/>
<path d="M213.896 43.3839C211.56 43.3839 209.512 42.8399 207.752 41.7519C206.024 40.6319 204.68 39.1279 203.72 37.2399C202.76 35.3519 202.28 33.2719 202.28 30.9999C202.28 28.6959 202.76 26.6159 203.72 24.7599C204.68 22.8719 206.024 21.3839 207.752 20.2959C209.512 19.1759 211.56 18.6159 213.896 18.6159C215.88 18.6159 217.576 18.9999 218.984 19.7679C220.424 20.5359 221.592 21.5759 222.488 22.8879V18.9999H226.088V42.9999H222.488V39.1599C221.592 40.4399 220.424 41.4639 218.984 42.2319C217.576 42.9999 215.88 43.3839 213.896 43.3839ZM214.376 40.1199C216.168 40.1199 217.672 39.7039 218.888 38.8719C220.136 38.0399 221.08 36.9359 221.72 35.5599C222.36 34.1519 222.68 32.6319 222.68 30.9999C222.68 29.3359 222.36 27.8159 221.72 26.4399C221.08 25.0639 220.136 23.9599 218.888 23.1279C217.672 22.2959 216.168 21.8799 214.376 21.8799C212.616 21.8799 211.096 22.2959 209.816 23.1279C208.536 23.9599 207.56 25.0639 206.888 26.4399C206.216 27.8159 205.88 29.3359 205.88 30.9999C205.88 32.6319 206.216 34.1519 206.888 35.5599C207.56 36.9359 208.536 38.0399 209.816 38.8719C211.096 39.7039 212.616 40.1199 214.376 40.1199Z" fill="white"/>
<path d="M238.41 14.9679V10.2639H242.298V14.9679H238.41ZM238.554 42.9999V18.9999H242.154V42.9999H238.554Z" fill="white"/>
<path d="M254.638 42.9999V18.9999H258.238V22.7439C259.102 21.5919 260.158 20.6159 261.406 19.8159C262.654 19.0159 264.254 18.6159 266.206 18.6159C267.87 18.6159 269.422 19.0159 270.862 19.8159C272.334 20.5839 273.518 21.7519 274.414 23.3199C275.342 24.8559 275.806 26.7599 275.806 29.0319V42.9999H272.206V29.1279C272.206 26.9519 271.582 25.2079 270.334 23.8959C269.086 22.5519 267.47 21.8799 265.486 21.8799C264.142 21.8799 262.926 22.1839 261.838 22.7919C260.75 23.3999 259.87 24.2639 259.198 25.3839C258.558 26.4719 258.238 27.7359 258.238 29.1759V42.9999H254.638Z" fill="white"/>
<path fill-rule="evenodd" clip-rule="evenodd" d="M86.1201 43.9999V8.3999H91.7201V43.9999H86.1201ZM106.653 42.5969L106.644 42.5911C104.764 41.3724 103.302 39.7334 102.264 37.6932C101.228 35.6546 100.716 33.4177 100.716 30.9999C100.716 28.554 101.226 26.3149 102.266 24.3035C103.304 22.263 104.768 20.6381 106.653 19.4509C108.592 18.2178 110.83 17.6159 113.332 17.6159C115.442 17.6159 117.31 18.0243 118.895 18.8877C119.635 19.2828 120.312 19.7452 120.924 20.2744V17.9999H126.524V43.9999H120.924V41.736C120.311 42.2586 119.634 42.7174 118.894 43.1122C117.309 43.9755 115.442 44.3839 113.332 44.3839C110.835 44.3839 108.6 43.8003 106.662 42.6025L106.653 42.5969ZM118.42 42.2319C119.374 41.7231 120.209 41.1019 120.924 40.3683C121.288 39.9946 121.622 39.5918 121.924 39.1599V42.9999H125.524V18.9999H121.924V22.8879C121.622 22.4452 121.288 22.0334 120.924 21.6526C120.209 20.905 119.374 20.2767 118.42 19.7679C117.012 18.9999 115.316 18.6159 113.332 18.6159C110.996 18.6159 108.948 19.1759 107.188 20.2959C105.46 21.3839 104.116 22.8719 103.156 24.7599C102.196 26.6159 101.716 28.6959 101.716 30.9999C101.716 33.2719 102.196 35.3519 103.156 37.2399C104.116 39.1279 105.46 40.6319 107.188 41.7519C108.948 42.8399 110.996 43.3839 113.332 43.3839C115.316 43.3839 117.012 42.9999 118.42 42.2319ZM117.769 38.0399C118.861 37.3117 119.684 36.3517 120.247 35.1419C120.824 33.8722 121.116 32.4956 121.116 30.9999C121.116 29.4674 120.822 28.0932 120.249 26.8616C119.686 25.6501 118.862 24.6888 117.769 23.96L117.759 23.9533C116.743 23.2577 115.446 22.8799 113.812 22.8799C112.215 22.8799 110.891 23.2552 109.797 23.9663C108.669 24.6993 107.815 25.665 107.222 26.8787C106.623 28.1065 106.316 29.4746 106.316 30.9999C106.316 32.4883 106.621 33.859 107.224 35.1251C107.817 36.337 108.67 37.3013 109.797 38.0335C110.891 38.7446 112.215 39.1199 113.812 39.1199C115.446 39.1199 116.743 38.7422 117.759 38.0466L117.769 38.0399ZM121.156 35.5599C120.516 36.9359 119.572 38.0399 118.324 38.8719C117.108 39.7039 115.604 40.1199 113.812 40.1199C112.052 40.1199 110.532 39.7039 109.252 38.8719C107.972 38.0399 106.996 36.9359 106.324 35.5599C105.652 34.1519 105.316 32.6319 105.316 30.9999C105.316 29.3359 105.652 27.8159 106.324 26.4399C106.996 25.0639 107.972 23.9599 109.252 23.1279C110.532 22.2959 112.052 21.8799 113.812 21.8799C115.604 21.8799 117.108 22.2959 118.324 23.1279C119.572 23.9599 120.516 25.0639 121.156 26.4399C121.796 27.8159 122.116 29.3359 122.116 30.9999C122.116 32.6319 121.796 34.1519 121.156 35.5599ZM141.534 42.5956C139.623 41.3798 138.129 39.7438 137.057 37.705L137.051 37.6932C136.015 35.6547 135.503 33.4177 135.503 30.9999C135.503 28.5527 136.014 26.3126 137.055 24.3005L137.057 24.2948C138.129 22.2555 139.625 20.6335 141.539 19.4488C143.482 18.2144 145.752 17.6159 148.311 17.6159C151.338 17.6159 153.97 18.4012 156.151 20.0184C158.337 21.6153 159.828 23.6989 160.596 26.2474L160.985 27.5359H155.071L154.821 26.9036C154.349 25.7091 153.591 24.744 152.532 23.9911L152.521 23.9838C151.534 23.2636 150.309 22.8799 148.791 22.8799C147.194 22.8799 145.85 23.255 144.718 23.9724C143.556 24.7093 142.671 25.6793 142.049 26.8954C141.423 28.1197 141.103 29.4819 141.103 30.9999C141.103 32.481 141.421 33.8458 142.051 35.1087C142.673 36.3228 143.558 37.2914 144.718 38.0274C145.85 38.7448 147.194 39.1199 148.791 39.1199C150.309 39.1199 151.534 38.7363 152.521 38.0161L152.531 38.0087C153.591 37.2558 154.349 36.2907 154.821 35.0962L155.071 34.4639H160.985L160.596 35.7525C159.828 38.3009 158.337 40.3845 156.151 41.9814C153.97 43.5986 151.338 44.3839 148.311 44.3839C145.755 44.3839 143.487 43.8029 141.545 42.6025L141.534 42.5956ZM155.559 41.1759C157.279 39.9198 158.522 38.3491 159.287 36.4639C159.418 36.1399 159.535 35.8065 159.639 35.4639H155.751C155.207 36.8399 154.327 37.9599 153.111 38.8239C151.927 39.6879 150.487 40.1199 148.791 40.1199C147.031 40.1199 145.495 39.7039 144.183 38.8719C142.871 38.0399 141.863 36.9359 141.159 35.5599C140.455 34.1519 140.103 32.6319 140.103 30.9999C140.103 29.3359 140.455 27.8159 141.159 26.4399C141.863 25.0639 142.871 23.9599 144.183 23.1279C145.495 22.2959 147.031 21.8799 148.791 21.8799C150.487 21.8799 151.927 22.3119 153.111 23.1759C154.327 24.0399 155.207 25.1599 155.751 26.5359H159.639C159.535 26.1933 159.418 25.8599 159.287 25.5359C158.522 23.6507 157.279 22.08 155.559 20.8239C153.575 19.3519 151.159 18.6159 148.311 18.6159C145.911 18.6159 143.831 19.1759 142.071 20.2959C140.311 21.3839 138.935 22.8719 137.943 24.7599C136.983 26.6159 136.503 28.6959 136.503 30.9999C136.503 33.2719 136.983 35.3519 137.943 37.2399C138.935 39.1279 140.311 40.6319 142.071 41.7519C143.831 42.8399 145.911 43.3839 148.311 43.3839C151.159 43.3839 153.575 42.6479 155.559 41.1759ZM169.34 43.9999V8.3999H174.94V20.1983C175.445 19.7541 175.988 19.346 176.568 18.974C178.021 18.0428 179.824 17.6159 181.908 17.6159C183.736 17.6159 185.451 18.0562 187.038 18.9354C188.686 19.798 189.999 21.1032 190.978 22.8131C192.018 24.5396 192.508 26.6303 192.508 29.0319V43.9999H186.908V29.1279C186.908 27.1535 186.348 25.6749 185.312 24.5851L185.303 24.5764C184.261 23.4541 182.919 22.8799 181.188 22.8799C180.001 22.8799 178.955 23.1466 178.028 23.6648C177.101 24.1829 176.346 24.9188 175.76 25.8947C175.224 26.8076 174.94 27.8904 174.94 29.1759V43.9999H169.34ZM174.9 25.3839C175.572 24.2639 176.452 23.3999 177.54 22.7919C178.628 22.1839 179.844 21.8799 181.188 21.8799C183.172 21.8799 184.788 22.5519 186.036 23.8959C187.284 25.2079 187.908 26.9519 187.908 29.1279V42.9999H191.508V29.0319C191.508 26.7599 191.044 24.8559 190.116 23.3199C189.22 21.7519 188.036 20.5839 186.564 19.8159C185.124 19.0159 183.572 18.6159 181.908 18.6159C179.956 18.6159 178.356 19.0159 177.108 19.8159C176.306 20.33 175.584 20.9167 174.94 21.5761C174.582 21.9429 174.249 22.3322 173.94 22.7439V9.3999H170.34V42.9999H173.94V29.1759C173.94 27.7359 174.26 26.4719 174.9 25.3839ZM207.217 42.5969L207.208 42.5911C205.328 41.3724 203.866 39.7334 202.828 37.6932C201.792 35.6546 201.28 33.4177 201.28 30.9999C201.28 28.5543 201.79 26.3155 202.829 24.3044C203.868 22.2634 205.332 20.6381 207.217 19.4508C209.156 18.2177 211.394 17.6159 213.896 17.6159C216.006 17.6159 217.874 18.0244 219.459 18.8879C220.199 19.283 220.875 19.7453 221.488 20.2744V17.9999H227.088V43.9999H221.488V41.736C220.875 42.2585 220.198 42.7172 219.458 43.112C217.874 43.9755 216.006 44.3839 213.896 44.3839C211.398 44.3839 209.163 43.8003 207.226 42.6025L207.217 42.5969ZM218.984 42.2319C219.938 41.7231 220.772 41.1019 221.488 40.3683C221.852 39.9946 222.185 39.5918 222.488 39.1599V42.9999H226.088V18.9999H222.488V22.8879C222.185 22.4452 221.852 22.0334 221.488 21.6526C220.772 20.905 219.938 20.2767 218.984 19.7679C217.576 18.9999 215.88 18.6159 213.896 18.6159C211.56 18.6159 209.512 19.1759 207.752 20.2959C206.024 21.3839 204.68 22.8719 203.72 24.7599C202.76 26.6159 202.28 28.6959 202.28 30.9999C202.28 33.2719 202.76 35.3519 203.72 37.2399C204.68 39.1279 206.024 40.6319 207.752 41.7519C209.512 42.8399 211.56 43.3839 213.896 43.3839C215.88 43.3839 217.576 42.9999 218.984 42.2319ZM218.323 38.0466L218.333 38.0398C219.425 37.3118 220.248 36.3519 220.811 35.1423C221.388 33.8724 221.68 32.4957 221.68 30.9999C221.68 29.4674 221.386 28.0932 220.813 26.8616C220.249 25.6501 219.426 24.6888 218.333 23.96L218.323 23.9533C217.306 23.2576 216.01 22.8799 214.376 22.8799C212.779 22.8799 211.455 23.2552 210.361 23.9663C209.233 24.6993 208.379 25.665 207.786 26.8787C207.187 28.1065 206.88 29.4746 206.88 30.9999C206.88 32.4883 207.185 33.859 207.788 35.1251C208.381 36.337 209.234 37.3013 210.361 38.0335C211.455 38.7446 212.779 39.1199 214.376 39.1199C216.01 39.1199 217.306 38.7422 218.323 38.0466ZM221.72 35.5599C221.08 36.9359 220.136 38.0399 218.888 38.8719C217.672 39.7039 216.168 40.1199 214.376 40.1199C212.616 40.1199 211.096 39.7039 209.816 38.8719C208.536 38.0399 207.56 36.9359 206.888 35.5599C206.216 34.1519 205.88 32.6319 205.88 30.9999C205.88 29.3359 206.216 27.8159 206.888 26.4399C207.56 25.0639 208.536 23.9599 209.816 23.1279C211.096 22.2959 212.616 21.8799 214.376 21.8799C216.168 21.8799 217.672 22.2959 218.888 23.1279C220.136 23.9599 221.08 25.0639 221.72 26.4399C222.36 27.8159 222.68 29.3359 222.68 30.9999C222.68 32.6319 222.36 34.1519 221.72 35.5599ZM237.41 15.9679V9.2639H243.298V15.9679H237.41ZM237.554 43.9999V17.9999H243.154V43.9999H237.554ZM253.638 43.9999V17.9999H259.238V20.1983C259.743 19.7541 260.286 19.346 260.867 18.974C262.319 18.0428 264.122 17.6159 266.206 17.6159C268.034 17.6159 269.749 18.0562 271.336 18.9354C272.984 19.798 274.297 21.1033 275.277 22.8133C276.316 24.5398 276.806 26.6304 276.806 29.0319V43.9999H271.206V29.1279C271.206 27.1535 270.646 25.6749 269.61 24.5851L269.601 24.5764C268.559 23.454 267.218 22.8799 265.486 22.8799C264.299 22.8799 263.253 23.1466 262.326 23.6648C261.399 24.1829 260.644 24.9188 260.058 25.8947C259.522 26.8076 259.238 27.8904 259.238 29.1759V43.9999H253.638ZM259.198 25.3839C259.87 24.2639 260.75 23.3999 261.838 22.7919C262.926 22.1839 264.142 21.8799 265.486 21.8799C267.47 21.8799 269.086 22.5519 270.334 23.8959C271.582 25.2079 272.206 26.9519 272.206 29.1279V42.9999H275.806V29.0319C275.806 26.7599 275.342 24.8559 274.414 23.3199C273.518 21.7519 272.334 20.5839 270.862 19.8159C269.422 19.0159 267.87 18.6159 266.206 18.6159C264.254 18.6159 262.654 19.0159 261.406 19.8159C260.604 20.33 259.882 20.9167 259.238 21.5761C258.88 21.9429 258.547 22.3322 258.238 22.7439V18.9999H254.638V42.9999H258.238V29.1759C258.238 27.7359 258.558 26.4719 259.198 25.3839ZM87.1201 9.3999H90.7201V42.9999H87.1201V9.3999ZM238.41 10.2639H242.298V14.9679H238.41V10.2639ZM242.154 18.9999V42.9999H238.554V18.9999H242.154Z" fill="white"/>
<path d="M0 35.7831L41.9496 7.8169L9.85769 39.3239L0 35.7831Z" fill="#5661FF"/>
<path d="M47.8639 9.94117L57.7216 13.4819L55.5972 19.3965L27.0648 30.6651L47.8639 9.94117Z" fill="#5661FF"/>
<path d="M57.3705 0L47.8639 9.94117L52.5743 54.6666L62.432 58.2074L57.3705 0Z" fill="#5661FF"/>
<path d="M6.57164 38.1435L9.80056 29.154L57.1175 46.1496L53.8885 55.1391L6.57164 38.1435Z" fill="#5661FF"/>
</svg>
