<svg width="168" height="52" viewBox="0 0 168 52" fill="none" xmlns="http://www.w3.org/2000/svg">
<path d="M73.016 31.336H78.536V34H69.656V17.248H73.016V31.336ZM80.2876 27.304C80.2876 25.96 80.5516 24.768 81.0796 23.728C81.6236 22.688 82.3516 21.888 83.2636 21.328C84.1916 20.768 85.2236 20.488 86.3596 20.488C87.3516 20.488 88.2156 20.688 88.9516 21.088C89.7036 21.488 90.3036 21.992 90.7516 22.6V20.704H94.1356V34H90.7516V32.056C90.3196 32.68 89.7196 33.2 88.9516 33.616C88.1996 34.016 87.3276 34.216 86.3356 34.216C85.2156 34.216 84.1916 33.928 83.2636 33.352C82.3516 32.776 81.6236 31.968 81.0796 30.928C80.5516 29.872 80.2876 28.664 80.2876 27.304ZM90.7516 27.352C90.7516 26.536 90.5916 25.84 90.2716 25.264C89.9516 24.672 89.5196 24.224 88.9756 23.92C88.4316 23.6 87.8476 23.44 87.2236 23.44C86.5996 23.44 86.0236 23.592 85.4956 23.896C84.9676 24.2 84.5356 24.648 84.1996 25.24C83.8796 25.816 83.7196 26.504 83.7196 27.304C83.7196 28.104 83.8796 28.808 84.1996 29.416C84.5356 30.008 84.9676 30.464 85.4956 30.784C86.0396 31.104 86.6156 31.264 87.2236 31.264C87.8476 31.264 88.4316 31.112 88.9756 30.808C89.5196 30.488 89.9516 30.04 90.2716 29.464C90.5916 28.872 90.7516 28.168 90.7516 27.352ZM97.0332 27.352C97.0332 25.976 97.3132 24.776 97.8732 23.752C98.4332 22.712 99.2092 21.912 100.201 21.352C101.193 20.776 102.329 20.488 103.609 20.488C105.257 20.488 106.617 20.904 107.689 21.736C108.777 22.552 109.505 23.704 109.873 25.192H106.249C106.057 24.616 105.729 24.168 105.265 23.848C104.817 23.512 104.257 23.344 103.585 23.344C102.625 23.344 101.865 23.696 101.305 24.4C100.745 25.088 100.465 26.072 100.465 27.352C100.465 28.616 100.745 29.6 101.305 30.304C101.865 30.992 102.625 31.336 103.585 31.336C104.945 31.336 105.833 30.728 106.249 29.512H109.873C109.505 30.952 108.777 32.096 107.689 32.944C106.601 33.792 105.241 34.216 103.609 34.216C102.329 34.216 101.193 33.936 100.201 33.376C99.2092 32.8 98.4332 32 97.8732 30.976C97.3132 29.936 97.0332 28.728 97.0332 27.352ZM120.303 20.512C121.311 20.512 122.207 20.736 122.991 21.184C123.775 21.616 124.383 22.264 124.815 23.128C125.263 23.976 125.487 25 125.487 26.2V34H122.127V26.656C122.127 25.6 121.863 24.792 121.335 24.232C120.807 23.656 120.087 23.368 119.175 23.368C118.247 23.368 117.511 23.656 116.967 24.232C116.439 24.792 116.175 25.6 116.175 26.656V34H112.815V16.24H116.175V22.36C116.607 21.784 117.183 21.336 117.903 21.016C118.623 20.68 119.423 20.512 120.303 20.512ZM128.298 27.304C128.298 25.96 128.562 24.768 129.09 23.728C129.634 22.688 130.362 21.888 131.274 21.328C132.202 20.768 133.234 20.488 134.37 20.488C135.362 20.488 136.226 20.688 136.962 21.088C137.714 21.488 138.314 21.992 138.762 22.6V20.704H142.146V34H138.762V32.056C138.33 32.68 137.73 33.2 136.962 33.616C136.21 34.016 135.338 34.216 134.346 34.216C133.226 34.216 132.202 33.928 131.274 33.352C130.362 32.776 129.634 31.968 129.09 30.928C128.562 29.872 128.298 28.664 128.298 27.304ZM138.762 27.352C138.762 26.536 138.602 25.84 138.282 25.264C137.962 24.672 137.53 24.224 136.986 23.92C136.442 23.6 135.858 23.44 135.234 23.44C134.61 23.44 134.034 23.592 133.506 23.896C132.978 24.2 132.546 24.648 132.21 25.24C131.89 25.816 131.73 26.504 131.73 27.304C131.73 28.104 131.89 28.808 132.21 29.416C132.546 30.008 132.978 30.464 133.506 30.784C134.05 31.104 134.626 31.264 135.234 31.264C135.858 31.264 136.442 31.112 136.986 30.808C137.53 30.488 137.962 30.04 138.282 29.464C138.602 28.872 138.762 28.168 138.762 27.352ZM147.612 19.12C147.02 19.12 146.524 18.936 146.124 18.568C145.74 18.184 145.548 17.712 145.548 17.152C145.548 16.592 145.74 16.128 146.124 15.76C146.524 15.376 147.02 15.184 147.612 15.184C148.204 15.184 148.692 15.376 149.076 15.76C149.476 16.128 149.676 16.592 149.676 17.152C149.676 17.712 149.476 18.184 149.076 18.568C148.692 18.936 148.204 19.12 147.612 19.12ZM149.268 20.704V34H145.908V20.704H149.268ZM160.435 20.512C162.019 20.512 163.299 21.016 164.275 22.024C165.251 23.016 165.739 24.408 165.739 26.2V34H162.379V26.656C162.379 25.6 162.115 24.792 161.587 24.232C161.059 23.656 160.339 23.368 159.427 23.368C158.499 23.368 157.763 23.656 157.219 24.232C156.691 24.792 156.427 25.6 156.427 26.656V34H153.067V20.704H156.427V22.36C156.875 21.784 157.443 21.336 158.131 21.016C158.835 20.68 159.603 20.512 160.435 20.512Z" fill="#1F197A"/>
<rect width="52" height="52" rx="26" fill="url(#paint0_linear_4622_48190)"/>
<path d="M38.1722 36.1175L33.5519 23.2696H26.6948L23.6072 31.8564H20.0298L25.8945 15.5508H23.6892C22.9015 15.5513 22.1331 15.7949 21.4889 16.2482C20.8448 16.7015 20.3561 17.3426 20.0897 18.0838L13.6074 36.1175H24.2704C25.0587 36.1176 25.8277 35.8743 26.4725 35.421C27.1173 34.9676 27.6064 34.3262 27.8731 33.5845L30.1226 27.3275L33.2825 36.1175H38.1722Z" fill="white"/>
<defs>
<linearGradient id="paint0_linear_4622_48190" x1="37.4478" y1="1.4027e-06" x2="10.0896" y2="52" gradientUnits="userSpaceOnUse">
<stop stop-color="#1F1F88"/>
<stop offset="1" stop-color="#1E0348"/>
</linearGradient>
</defs>
</svg>
